<svg xmlns="http://www.w3.org/2000/svg" width="1200" height="400" viewBox="0 0 1200 400" font-family="Menlo, monospace">
  <rect width="1200" height="400" fill="#0B1220"/>
  <!-- doküman -->
  <g opacity="0.85">
    <rect x="770" y="150" width="70" height="90" rx="6" fill="#0E1A2E" stroke="#1E3A5F"/>
    <path d="M784 172 L826 172 M784 190 L826 190 M784 208 L812 208" stroke="#64748B" stroke-width="1.4"/>
    <path d="M852 195 l24 0 m0 0 l-7 -6 m7 6 l-7 6" stroke="#38BDF8" stroke-width="1.8"/>
    <!-- vektör bulutu -->
    <circle cx="920" cy="150" r="4" fill="#334155"/><circle cx="960" cy="180" r="4" fill="#334155"/>
    <circle cx="945" cy="220" r="4" fill="#334155"/><circle cx="990" cy="150" r="4" fill="#334155"/>
    <circle cx="1005" cy="205" r="4" fill="#334155"/><circle cx="975" cy="245" r="4" fill="#334155"/>
    <circle cx="965" cy="200" r="7" fill="#38BDF8"/>
    <circle cx="990" cy="150" r="6" fill="#38BDF8"/>
    <circle cx="945" cy="220" r="6" fill="#38BDF8"/>
    <path d="M965 200 L990 150 M965 200 L945 220" stroke="#38BDF8" stroke-width="1.3" opacity="0.6"/>
    <path d="M1030 200 l24 0 m0 0 l-7 -6 m7 6 l-7 6" stroke="#38BDF8" stroke-width="1.8"/>
    <text x="1064" y="205" font-size="14" fill="#94A3B8">top-k</text>
  </g>
  <text x="64" y="212" font-size="58" font-weight="bold" fill="#E2E8F0">rag_kit</text>
  <text x="66" y="256" font-size="23" fill="#94A3B8">Chunk, embed, retrieve, build context</text>
</svg>
